<?xml version="1.0" encoding="UTF-8" standalone="no"?>
<svg
   width="1280"
   height="640"
   preserveAspectRatio="none"
   viewBox="0 0 1280 640"
   version="1.1"
   id="svg4"
   xml:space="preserve"
   xmlns="http://www.w3.org/2000/svg"
   xmlns:svg="http://www.w3.org/2000/svg"><path
     fill="#553e98"
     d="M -82,-22 H 1358 V 710 H -82 Z"
     id="path1"
     style="display:inline;fill:#33466d;fill-opacity:1;stroke-width:1.14331" /><path
     d="m 714.366,256.564 -458.44,458.44 V 768.54 H 767.82 V 256.564 Z"
     class="background-dark"
     clip-path="url(#a-0-8)"
     style="display:inline;fill:#28264e;fill-opacity:1;stroke-width:0"
     transform="matrix(-2.3999727,0,0,-2.3999727,1463.2095,1478.8669)"
     id="path4-4-2" /><path
     fill="#ff9b85"
     d="m 1358,1104 c 100,30 230,40 310,-40 80,-80 30,-210 70,-310 35,-90 130,-150 140,-240 10,-100 -10,-220 -90,-290 -80,-70 -200,-40 -300,-60 -90,-20 -180,-60 -270,-30 -90,30 -150,110 -220,170 -70,70 -190,120 -200,220 -10,100 110,160 170,240 50,70 90,130 150,180 70,60 140,140 230,160"
     id="path3"
     style="display:inline;fill:#c06382;fill-opacity:1" /><g
     id="g4"
     transform="matrix(1.5118129,0,0,1.5118129,127.20414,117.74583)"
     style="display:inline"><path
       d="M 255.928,256.564 H 767.82 V 768.54 H 255.928 Z"
       class="background-light"
       clip-path="url(#a-0)"
       style="display:inline;fill:#33466d;fill-opacity:1;stroke-width:0"
       transform="matrix(0.52916,0,0,0.52916,-135.407,-135.75)"
       id="path3-9" /><path
       d="m 714.366,256.564 -458.44,458.44 V 768.54 H 767.82 V 256.564 Z"
       class="background-dark"
       clip-path="url(#a-0)"
       style="display:inline;fill:#28264e;fill-opacity:1;stroke-width:0"
       transform="matrix(0.52916,0,0,0.52916,-135.407,-135.75)"
       id="path4-4" /><g
       clip-path="url(#b)"
       style="display:inline"
       id="g6"><path
         d="m 601.91,768.54 c -2.735,-0.066 -43.37,-47.717 -83.736,-79.261 -2.784,-2.176 -6.65,-5.2 -8.593,-6.721 -3.886,-3.045 -10.784,-7.06 -11.479,-7.461 -1.19,-0.687 -2.393,-1.272 -6.665,-3.15 -4.524,-1.99 -13.567,-4.542 -18.772,-5.298 -8.498,-1.236 -33.84,-1.639 -96.251,-1.582 l -120.486,0.11 c -0.016,-82.184 -0.01,-236.036 -0.013,-305.108 l 88.831,0.232 c 39.029,0.101 40.847,-0.189 47.144,-3.008 13.443,-6.019 68.906,-76.53 83.114,-82.973 7.254,-3.29 16.603,-4.702 23.918,-3.202 1.581,0.324 6.626,1.157 11.212,1.852 10.895,1.65 18.218,2.754 35.434,7.376 28.676,7.697 56.638,19.386 58.66,20.31 11.937,5.453 25.411,12.472 29.43,16.271 1.59,1.504 3.282,3.542 4.083,4.852 3.524,5.765 11.034,19.845 11.756,22.333 9.175,22.007 17.356,44.381 25.733,66.7 3.979,11.415 8.336,22.57 12.276,33.945 3.358,9.785 10.614,30.128 11.045,30.968 5.604,15.717 10.419,31.655 15.204,47.643 2.989,9.93 6.674,22.862 10.253,36.626 5.39,18.118 10.909,36.205 14.226,54.889 0.718,3.96 3.264,19.802 3.445,21.053 0.437,3.026 3.277,25.867 3.851,31.073 2.626,23.81 2.15,68.545 -17.678,101.54 -0.1,0.167 -2.65,0.031 -2.707,0.032 -9.042,0.065 -31.907,-0.03 -39.664,-0.043 -15.94,-0.029 -83.501,0.005 -83.508,0.005 z"
         class="logo-secondary"
         style="display:inline;fill:#c06382;fill-opacity:1;stroke-width:0;stroke-dasharray:none"
         id="path5"
         transform="matrix(0.52916,0,0,0.52916,-135.407,-135.75)" /><path
         d="m 115.894,9.256 c -7,3.173 -37.415,41.18 -43.992,44.125 -3.331,1.492 -4.294,1.645 -24.947,1.591 L 0.015,54.783 c 0,36.55 -0.002,117.963 0.006,161.45 L 26.477,216.21 204.26,38.36 c -0.75,-1.387 -1.84,-3.095 -2.388,-3.99 -0.424,-0.694 -1.18,-1.633 -2.021,-2.428 -2.126,-2.01 -9.256,-5.725 -15.573,-8.61 -10.144,-4.633 -20.204,-7.68 -31.041,-10.748 -9.11,-2.446 -17.249,-3.626 -18.752,-3.903 -2.413,-0.444 -5.031,-0.84 -5.932,-0.98 -0.641,-0.098 -6.525,-1.225 -12.658,1.555 z"
         class="logo-primary"
         style="fill:#e1a38d;fill-opacity:1;stroke-width:0"
         id="path6" /><g
         clip-path="url(#c)"
         style="display:inline"
         transform="matrix(0.52916,0,0,0.52916,-135.407,-135.75)"
         id="g9"><circle
           cx="530.53198"
           cy="381.81699"
           r="31.528999"
           class="dot-light"
           style="fill:#33466d;fill-opacity:1;stroke-width:0;stroke-linejoin:bevel;stroke-dasharray:none"
           id="circle6" /><circle
           cx="471.565"
           cy="440.34799"
           r="31.528999"
           class="dot-light"
           style="fill:#33466d;fill-opacity:1;stroke-width:0;stroke-linejoin:bevel;stroke-dasharray:none"
           id="circle7" /><circle
           cx="590.60101"
           cy="439.25201"
           r="31.528999"
           class="dot-dark"
           style="fill:#28264e;fill-opacity:1;stroke-width:0;stroke-linejoin:bevel;stroke-dasharray:none"
           id="circle8" /><circle
           cx="530.44098"
           cy="499.948"
           r="31.528999"
           class="dot-dark"
           style="fill:#28264e;fill-opacity:1;stroke-width:0;stroke-linejoin:bevel;stroke-dasharray:none"
           id="circle9" /></g></g></g><defs
     id="defs4"><clipPath
       id="a-0"
       clipPathUnits="userSpaceOnUse"><ellipse
         cx="511.875"
         cy="512.55103"
         rx="255.946"
         ry="255.98399"
         style="fill:none"
         id="ellipse1" /></clipPath><clipPath
       id="b"
       clipPathUnits="userSpaceOnUse"><ellipse
         cx="135.457"
         cy="135.47099"
         rx="135.436"
         ry="135.45599"
         style="fill:none"
         id="ellipse2" /></clipPath><clipPath
       id="c"
       clipPathUnits="userSpaceOnUse"><ellipse
         cx="511.875"
         cy="512.55103"
         rx="255.946"
         ry="255.98399"
         style="fill:none"
         id="ellipse3" /></clipPath><clipPath
       id="a-0-8"
       clipPathUnits="userSpaceOnUse"><ellipse
         cx="511.875"
         cy="512.55103"
         rx="255.946"
         ry="255.98399"
         style="fill:none"
         id="ellipse1-8" /></clipPath></defs><style
     type="text/css"
     id="style1">
	.st0{fill:#FFFFFF;}
</style><text
     xml:space="preserve"
     style="font-style:normal;font-variant:normal;font-weight:normal;font-stretch:normal;font-size:48px;line-height:0;font-family:Calibri;-inkscape-font-specification:Calibri;text-align:start;writing-mode:lr-tb;direction:ltr;text-anchor:start;fill:#371f69;fill-opacity:1;stroke-width:3.375"
     x="697.04688"
     y="480.85156"
     id="text6"><tspan
       id="tspan6"
       x="697.04688"
       y="480.85156"
       style="font-style:normal;font-variant:normal;font-weight:bold;font-stretch:normal;font-size:48px;line-height:0;font-family:Calibri;-inkscape-font-specification:'Calibri Bold';fill:#ffffff;fill-opacity:1;stroke-width:3.375">rommapp/playnite-plugin</tspan></text><path
     class="st0"
     d="m 629.609,424.4 c -21.951,0 -39.609,17.82 -39.609,39.852 0,17.658 11.34,32.562 27.054,37.827 1.944,0.405 2.673,-0.891 2.673,-1.944 0,-0.891 -0.081,-4.131 -0.081,-7.371 -11.016,2.349 -13.284,-4.779 -13.284,-4.779 -1.782,-4.617 -4.374,-5.832 -4.374,-5.832 -3.564,-2.43 0.243,-2.43 0.243,-2.43 3.969,0.243 6.075,4.131 6.075,4.131 3.564,6.075 9.234,4.374 11.502,3.321 0.324,-2.592 1.377,-4.374 2.511,-5.346 -8.748,-0.891 -17.982,-4.374 -17.982,-19.683 0,-4.374 1.539,-7.938 4.05,-10.692 -0.405,-0.972 -1.782,-5.103 0.405,-10.53 0,0 3.321,-1.053 10.854,4.131 3.159,-0.891 6.561,-1.296 9.882,-1.296 3.321,0 6.723,0.486 9.882,1.296 7.533,-5.184 10.854,-4.131 10.854,-4.131 2.187,5.508 0.81,9.558 0.405,10.53 2.592,2.754 4.05,6.318 4.05,10.692 0,15.309 -9.234,18.711 -18.063,19.683 1.458,1.215 2.673,3.645 2.673,7.371 0,5.346 -0.081,9.639 -0.081,10.935 0,1.053 0.729,2.349 2.673,1.944 15.795,-5.265 27.135,-20.169 27.135,-37.827 C 669.137,442.22 651.398,424.4 629.609,424.4 Z"
     id="path1-4"
     style="stroke-width:0.81" /><text
     xml:space="preserve"
     style="font-style:normal;font-variant:normal;font-weight:normal;font-stretch:normal;font-size:53.3333px;line-height:0;font-family:Calibri;-inkscape-font-specification:Calibri;text-align:start;writing-mode:lr-tb;direction:ltr;text-anchor:start;fill:#371f69;fill-opacity:1;stroke-width:3.375"
     x="587.94604"
     y="355.5123"
     id="text8"><tspan
       id="tspan8"
       x="587.94604"
       y="355.5123"
       style="font-style:normal;font-variant:normal;font-weight:bold;font-stretch:normal;font-size:53.3333px;line-height:0;font-family:Calibri;-inkscape-font-specification:'Calibri Bold';fill:#ffffff;fill-opacity:1;stroke-width:3.375">RomM plugin for Playnite.</tspan></text><text
     xml:space="preserve"
     style="font-style:normal;font-variant:normal;font-weight:normal;font-stretch:normal;font-size:53.3333px;line-height:0;font-family:Calibri;-inkscape-font-specification:Calibri;text-align:start;writing-mode:lr-tb;direction:ltr;text-anchor:start;fill:#371f69;fill-opacity:1;stroke-width:3.375"
     x="589.34094"
     y="296.45831"
     id="text6-5-1"><tspan
       id="tspan6-5-1"
       x="589.34094"
       y="296.45831"
       style="font-style:normal;font-variant:normal;font-weight:bold;font-stretch:normal;font-size:53.3333px;line-height:0;font-family:Calibri;-inkscape-font-specification:'Calibri Bold';fill:#ffffff;fill-opacity:1;stroke-width:3.375">A beautiful, powerful,</tspan></text><text
     xml:space="preserve"
     style="font-style:normal;font-variant:normal;font-weight:normal;font-stretch:normal;font-size:64px;line-height:0;font-family:Calibri;-inkscape-font-specification:Calibri;text-align:start;writing-mode:lr-tb;direction:ltr;text-anchor:start;fill:#371f69;fill-opacity:1;stroke-width:3.35889"
     x="582.79852"
     y="201.72719"
     id="text6-5-3"
     transform="scale(1.0047962,0.9952267)"><tspan
       id="tspan6-5-0"
       x="582.79852"
       y="201.72719"
       style="font-style:normal;font-variant:normal;font-weight:bold;font-stretch:normal;font-size:64px;line-height:0;font-family:Calibri;-inkscape-font-specification:'Calibri Bold';fill:#ffffff;fill-opacity:1;stroke-width:3.35889">RomM Playnite plugin</tspan></text></svg>
